<?xml version="1.0" encoding="iso-8859-1"?><!-- Generator: Adobe Illustrator 21.0.0, SVG Export Plug-In . SVG Version: 6.00 Build 0)  --><svg xmlns="http://www.w3.org/2000/svg" xmlns:xlink="http://www.w3.org/1999/xlink" viewBox="0 0 50 50" width="100px" height="100px"><path style="fill:none;stroke:#000000;stroke-width:2;stroke-miterlimit:10;" d="M5.5,42h39c1.933,0,3.5-1.567,3.5-3.5v-27C48,9.567,46.433,8,44.5,8h-39C3.567,8,2,9.567,2,11.5v27C2,40.433,3.567,42,5.5,42z"/><path style="fill:none;stroke:#000000;stroke-width:2;stroke-miterlimit:10;" d="M2,11.483c0,1.26,1.587,2.361,1.587,2.361L25,29l21.413-15.156c0,0,1.587-1.101,1.587-2.361"/><polyline style="fill:none;stroke:#000000;stroke-width:2;stroke-miterlimit:10;" points="44.892,8.132 25,22 4.978,8.041 "/><line style="fill:none;stroke:#000000;stroke-width:2;stroke-miterlimit:10;" x1="43" y1="16.236" x2="43" y2="42"/><line style="fill:none;stroke:#000000;stroke-width:2;stroke-miterlimit:10;" x1="7" y1="16.236" x2="7" y2="42"/></svg>